<?xml version="1.0" encoding="utf-8"?>
<!-- Generator: Adobe Illustrator 16.0.0, SVG Export Plug-In . SVG Version: 6.00 Build 0)  -->
<!DOCTYPE svg PUBLIC "-//W3C//DTD SVG 1.1//EN" "http://www.w3.org/Graphics/SVG/1.1/DTD/svg11.dtd">
<svg version="1.1" id="Ebene_1" xmlns="http://www.w3.org/2000/svg" xmlns:xlink="http://www.w3.org/1999/xlink" x="0px" y="0px"
	 width="300px" height="180px" viewBox="0 0 300 180" enable-background="new 0 0 300 180" xml:space="preserve">
<path fill="#BECB00" d="M8.067,100.465v-5.013c3.132,1.33,5.805,1.973,8.041,1.973c1.552,0,2.776-0.369,3.679-1.063
	c0.906-0.694,1.36-1.607,1.36-2.829c0-0.912-0.291-1.712-0.852-2.375c-0.561-0.643-1.63-1.415-3.2-2.298l-1.949-1.093
	c-2.612-1.468-4.453-2.879-5.523-4.213C8.545,82.218,8,80.645,8,78.833c0-2.378,0.881-4.323,2.641-5.766
	c1.774-1.466,4.106-2.188,6.994-2.188c2.334,0,4.932,0.347,7.859,0.999v4.659c-2.983-1.121-5.332-1.657-7.065-1.657
	c-1.333,0-2.411,0.295-3.227,0.885c-0.802,0.609-1.201,1.384-1.201,2.347c0,0.799,0.288,1.494,0.853,2.104
	c0.561,0.614,1.625,1.337,3.177,2.218l2.082,1.172c2.811,1.572,4.746,3.015,5.812,4.348c1.063,1.31,1.581,2.935,1.581,4.83
	c0,2.718-0.993,4.804-2.995,6.35c-2.013,1.545-4.774,2.295-8.299,2.295C13.869,101.429,11.162,101.107,8.067,100.465"/>
<path fill="#BECB00" d="M48.63,100.251c-2.425,0.641-4.645,0.961-6.7,0.961c-3.463,0-6.186-1.013-8.187-3.04
	c-1.999-2.027-2.987-4.8-2.987-8.271c0-3.545,1.034-6.294,3.091-8.293c2.057-1.978,4.887-2.989,8.517-2.989
	c1.76,0,3.788,0.292,6.082,0.853v4.214c-2.377-0.772-4.296-1.172-5.712-1.172c-1.758,0-3.148,0.669-4.214,2.002
	c-1.067,1.335-1.6,3.12-1.6,5.335c0,2.269,0.584,4.104,1.725,5.443c1.154,1.383,2.676,2.029,4.596,2.029
	c1.736,0,3.534-0.374,5.39-1.123V100.251"/>
<path fill="#BECB00" d="M54.126,100.685v-31.03h5.816v13.527c1.905-3.041,4.352-4.563,7.363-4.563c1.921,0,3.442,0.613,4.562,1.84
	c1.117,1.227,1.668,2.882,1.668,4.989v15.237h-5.828V86.887c0-2.454-0.802-3.681-2.43-3.681c-1.842,0-3.627,1.308-5.335,3.921
	v13.558H54.126"/>
<rect x="80.565" y="69.654" fill="#BECB00" width="5.831" height="31.03"/>
<path fill-rule="evenodd" clip-rule="evenodd" fill="#BECB00" d="M102.832,97.536c3.335,0,5.015-2.561,5.015-7.661
	c0-2.348-0.452-4.213-1.333-5.574c-0.882-1.36-2.106-2.028-3.645-2.029c-1.531,0-2.749,0.669-3.639,2.029
	c-0.879,1.361-1.309,3.229-1.309,5.604c0,2.347,0.43,4.214,1.309,5.599C100.112,96.889,101.312,97.536,102.832,97.536
	 M102.728,101.212c-3.362,0-6.048-1.015-8.033-3.088c-1.989-2.03-2.979-4.755-2.979-8.22c0-3.472,1.004-6.242,2.989-8.246
	c2.017-2.026,4.724-3.04,8.164-3.04c3.441,0,6.163,1.014,8.153,3.04c2.011,2.004,3.016,4.75,3.016,8.217
	c0,3.548-1.005,6.321-3.016,8.3C109.022,100.199,106.257,101.212,102.728,101.212"/>
<path fill="#BECB00" d="M118.812,99.991v-4.223c2.883,1.179,5.338,1.768,7.392,1.768c2.376,0,3.575-0.802,3.575-2.406
	c0-1.064-0.985-1.973-2.936-2.771l-1.974-0.775c-2.135-0.854-3.657-1.788-4.588-2.8c-0.908-0.988-1.362-2.217-1.362-3.685
	c0-2.052,0.773-3.628,2.33-4.771c1.565-1.125,3.753-1.709,6.554-1.709c1.759,0,3.843,0.266,6.271,0.773v4.083
	c-2.347-0.803-4.269-1.202-5.814-1.203c-2.401,0-3.604,0.747-3.604,2.241c0,0.964,0.882,1.814,2.669,2.482l1.682,0.665
	c2.535,0.937,4.294,1.922,5.28,2.909c0.988,0.984,1.494,2.218,1.494,3.766c0,2.028-0.852,3.682-2.534,4.962
	c-1.68,1.276-3.868,1.915-6.564,1.915C124.071,101.212,121.455,100.79,118.812,99.991"/>
<path fill="#BECB00" d="M141.571,99.991v-4.223c2.882,1.179,5.36,1.768,7.392,1.768c2.397,0,3.574-0.802,3.574-2.406
	c0-1.064-0.963-1.973-2.938-2.771l-1.972-0.775c-2.135-0.854-3.657-1.788-4.564-2.8c-0.933-0.988-1.387-2.217-1.387-3.685
	c0-2.052,0.775-3.628,2.347-4.771c1.559-1.125,3.753-1.709,6.539-1.709c1.759,0,3.842,0.266,6.291,0.773v4.083
	c-2.345-0.803-4.268-1.202-5.813-1.203c-2.406,0-3.626,0.747-3.626,2.241c0,0.964,0.904,1.814,2.669,2.482l1.704,0.665
	c2.512,0.937,4.271,1.922,5.28,2.909c0.966,0.984,1.493,2.218,1.493,3.766c0,2.028-0.852,3.682-2.556,4.962
	c-1.657,1.276-3.847,1.915-6.563,1.915C146.867,101.212,144.214,100.79,141.571,99.991"/>
<polygon points="59.94,125.869 59.94,96.786 63.837,96.786 63.837,111.087 75.683,96.786 79.867,96.786 68.373,110.66 
	81.897,125.869 76.64,125.869 63.837,111.14 63.837,125.869 "/>
<rect x="86.51" y="94.861" width="3.896" height="31.008"/>
<path fill-rule="evenodd" clip-rule="evenodd" d="M108.728,121.065v-5.5l-1.306-0.053c-2.135,0-3.869,0.38-5.177,1.228
	c-1.331,0.8-1.99,1.82-1.99,3.149c0,0.911,0.337,1.709,0.987,2.35c0.667,0.641,1.467,0.961,2.417,0.961
	C105.287,123.2,106.969,122.504,108.728,121.065 M109.299,123.195c-2.331,2.135-4.574,3.201-6.743,3.201
	c-1.778,0-3.262-0.582-4.436-1.653c-1.175-1.119-1.762-2.554-1.762-4.215c0-2.346,0.985-4.109,2.952-5.386
	c1.976-1.231,4.803-1.87,8.485-1.87h0.932v-2.564c0-2.502-1.28-3.731-3.84-3.731c-2.055,0-4.272,0.64-6.67,1.87v-3.202
	c2.624-1.065,5.094-1.599,7.388-1.599c2.401,0,4.163,0.579,5.294,1.648c1.148,1.067,1.724,2.725,1.724,5.014v9.661
	c0,2.191,0.693,3.311,2.057,3.311c0.184,0,0.425-0.004,0.754-0.057l0.284,2.135c-0.896,0.426-1.866,0.639-2.935,0.639
	C110.968,126.396,109.796,125.33,109.299,123.195"/>
<path d="M134.044,125.869v-4.004c-2.079,3.035-4.587,4.531-7.548,4.531c-1.867,0-3.361-0.586-4.48-1.758
	c-1.096-1.175-1.655-2.775-1.655-4.75v-15.363h3.896v14.085c0,1.6,0.239,2.724,0.693,3.415c0.48,0.69,1.256,1.013,2.349,1.013
	c2.375,0,4.616-1.549,6.746-4.645v-13.868h3.896v21.344H134.044"/>
<path d="M151.464,126.396c-1.808,0-3.953-0.424-6.505-1.274v-3.526c2.552,1.231,4.751,1.87,6.665,1.87
	c1.121,0,2.031-0.316,2.778-0.907c0.746-0.589,1.118-1.336,1.118-2.243c0-1.333-1.063-2.45-3.142-3.305l-2.249-0.961
	c-3.367-1.388-5.063-3.366-5.063-5.979c0-1.867,0.677-3.311,1.975-4.376c1.334-1.069,3.15-1.648,5.489-1.648
	c1.179,0,2.672,0.16,4.434,0.527l0.802,0.16v3.204c-2.187-0.641-3.896-0.96-5.177-0.96c-2.508,0-3.742,0.906-3.742,2.719
	c0,1.173,0.919,2.137,2.835,2.938l1.868,0.798c2.133,0.905,3.629,1.818,4.532,2.828c0.858,0.965,1.333,2.191,1.333,3.684
	c0,1.869-0.747,3.417-2.239,4.642C155.682,125.762,153.764,126.396,151.464,126.396"/>
<rect x="169.025" y="29.804" fill="#004B6B" width="96.457" height="96.437"/>
<polygon fill="#007866" points="208.347,94.115 233.351,94.115 233.351,126.24 265.493,126.24 265.496,151.263 208.347,151.263 "/>
<polygon fill="#BECB00" points="233.351,69.094 290.499,69.094 290.499,126.13 265.493,126.13 265.493,94.115 233.351,94.115 "/>
<polygon fill="#FFEA00" points="208.347,69.094 265.493,69.094 236.926,29.804 "/>
</svg>
